# xmcd CD database file
#
# Track frame offsets:
#	183
#	20133
#	42408
#	69583
#	88683
#	110233
#	131808
#	163733
#	200508
#
# Disc length: 3028 seconds
#
# Revision: 0
# Processed by: cddbd v1.4PL0 Copyright (c) Steve Scherf et al.
# Submitted via: Feurio! 1.64 - http://www.feurio.com
#
DISCID=880bd209
DTITLE=Cray Robert - Smokin' Gun
DYEAR=1991
DGENRE=
TTITLE0=I guess I showed her
TTITLE1=Smokin' gun
TTITLE2=The last time
TTITLE3=More than I can stand
TTITLE4=Don't you even care
TTITLE5=Don't be afraid of the dark
TTITLE6=I can't go home
TTITLE7=Playin' in the dirt
TTITLE8=Right next door (Because of me)
EXTD=recorded live during the 1989 U.S. Tour
EXTT0=
EXTT1=
EXTT2=
EXTT3=
EXTT4=
EXTT5=
EXTT6=
EXTT7=
EXTT8=
PLAYORDER=
